<?xml version="1.0" encoding="UTF-8"?>
<!--
Font Awesome Pro by @fontawesome - https://fontawesome.com
License - https://fontawesome.com/license (Commercial License)
-->
<svg xmlns="http://www.w3.org/2000/svg">
	<defs><style>.fa-secondary{opacity:.4}</style></defs>
	<symbol id="balance-scale" viewBox="0 0 640 512">
		<path d="M544 464v32a16 16 0 0 1-16 16H112a16 16 0 0 1-16-16v-32a16 16 0 0 1 16-16h176V153.25A80.06 80.06 0 0 1 241.61 96H112a16 16 0 0 1-16-16V48a16 16 0 0 1 16-16h144.36a79.28 79.28 0 0 1 127.28 0H528a16 16 0 0 1 16 16v32a16 16 0 0 1-16 16H398.39A80.06 80.06 0 0 1 352 153.25V448h176a16 16 0 0 1 16 16z" class="fa-secondary"/><path d="M256 336c0-16.18 1.34-8.73-85-181.51-17.65-35.29-68.19-35.36-85.87 0C-2.06 328.75 0 320.33 0 336c0 44.18 57.31 80 128 80s128-35.82 128-80zM128 176l72 144H56zm512 160c0-16.18 1.34-8.73-85.05-181.51-17.65-35.29-68.19-35.36-85.87 0C381.94 328.75 384 320.33 384 336c0 44.18 57.31 80 128 80s128-35.82 128-80zm-200-16l72-144 72 144z" class="fa-primary"/>
	</symbol>
	<symbol id="ban" viewBox="0 0 512 512">
		<path d="M406.78 361.53a186.53 186.53 0 0 1-45.25 45.25L105.22 150.47a186.53 186.53 0 0 1 45.25-45.25z" class="fa-secondary"/><path d="M256 8C119 8 8 119 8 256s111 248 248 248 248-111 248-248S393 8 256 8zm130.11 378.11A184 184 0 1 1 440 256a182.82 182.82 0 0 1-53.89 130.11z" class="fa-primary"/>
	</symbol>
	<symbol id="bullhorn" viewBox="0 0 576 512">
		<path d="M544 448c0 9.22-7.08 32-32 32a32 32 0 0 1-20-7l-85-68a242.82 242.82 0 0 0-119-50.79V125.84a242.86 242.86 0 0 0 119-50.79L492 7a31.93 31.93 0 0 1 20-7c25 0 32 23.26 32 32z" class="fa-secondary"/><path d="M544 184.88v110.24a63.47 63.47 0 0 0 0-110.24zM0 192v96a64 64 0 0 0 64 64h33.7a243 243 0 0 0-2.18 32 253.32 253.32 0 0 0 25.56 110.94c5.19 10.69 16.52 17.06 28.4 17.06h74.28c26.05 0 41.69-29.84 25.9-50.56A127.35 127.35 0 0 1 223.51 384a121 121 0 0 1 4.41-32H256V128H64a64 64 0 0 0-64 64z" class="fa-primary"/>
	</symbol>
	<symbol id="code" viewBox="0 0 640 512">
		<path d="M422.12 18.16a12 12 0 0 1 8.2 14.9l-136.5 470.2a12 12 0 0 1-14.89 8.2l-61-17.7a12 12 0 0 1-8.2-14.9l136.5-470.2a12 12 0 0 1 14.89-8.2z" class="fa-secondary"/><path d="M636.23 247.26l-144.11-135.2a12.11 12.11 0 0 0-17 .5L431.62 159a12 12 0 0 0 .81 17.2L523 256l-90.59 79.7a11.92 11.92 0 0 0-.81 17.2l43.5 46.4a12 12 0 0 0 17 .6l144.11-135.1a11.94 11.94 0 0 0 .02-17.54zm-427.8-88.2l-43.5-46.4a12 12 0 0 0-17-.5l-144.11 135a11.94 11.94 0 0 0 0 17.5l144.11 135.1a11.92 11.92 0 0 0 17-.5l43.5-46.4a12 12 0 0 0-.81-17.2L117 256l90.6-79.7a11.92 11.92 0 0 0 .83-17.24z" class="fa-primary"/>
	</symbol>
	<symbol id="cogs" viewBox="0 0 640 512">
		<path d="M638.41 387a12.34 12.34 0 0 0-12.2-10.3h-16.5a86.33 86.33 0 0 0-15.9-27.4L602 335a12.42 12.42 0 0 0-2.8-15.7 110.5 110.5 0 0 0-32.1-18.6 12.36 12.36 0 0 0-15.1 5.4l-8.2 14.3a88.86 88.86 0 0 0-31.7 0l-8.2-14.3a12.36 12.36 0 0 0-15.1-5.4 111.83 111.83 0 0 0-32.1 18.6 12.3 12.3 0 0 0-2.8 15.7l8.2 14.3a86.33 86.33 0 0 0-15.9 27.4h-16.5a12.43 12.43 0 0 0-12.2 10.4 112.66 112.66 0 0 0 0 37.1 12.34 12.34 0 0 0 12.2 10.3h16.5a86.33 86.33 0 0 0 15.9 27.4l-8.2 14.3a12.42 12.42 0 0 0 2.8 15.7 110.5 110.5 0 0 0 32.1 18.6 12.36 12.36 0 0 0 15.1-5.4l8.2-14.3a88.86 88.86 0 0 0 31.7 0l8.2 14.3a12.36 12.36 0 0 0 15.1 5.4 111.83 111.83 0 0 0 32.1-18.6 12.3 12.3 0 0 0 2.8-15.7l-8.2-14.3a86.33 86.33 0 0 0 15.9-27.4h16.5a12.43 12.43 0 0 0 12.2-10.4 112.66 112.66 0 0 0 .01-37.1zm-136.8 44.9c-29.6-38.5 14.3-82.4 52.8-52.8 29.59 38.49-14.3 82.39-52.8 52.79zm136.8-343.8a12.34 12.34 0 0 0-12.2-10.3h-16.5a86.33 86.33 0 0 0-15.9-27.4l8.2-14.3a12.42 12.42 0 0 0-2.8-15.7 110.5 110.5 0 0 0-32.1-18.6A12.36 12.36 0 0 0 552 7.19l-8.2 14.3a88.86 88.86 0 0 0-31.7 0l-8.2-14.3a12.36 12.36 0 0 0-15.1-5.4 111.83 111.83 0 0 0-32.1 18.6 12.3 12.3 0 0 0-2.8 15.7l8.2 14.3a86.33 86.33 0 0 0-15.9 27.4h-16.5a12.43 12.43 0 0 0-12.2 10.4 112.66 112.66 0 0 0 0 37.1 12.34 12.34 0 0 0 12.2 10.3h16.5a86.33 86.33 0 0 0 15.9 27.4l-8.2 14.3a12.42 12.42 0 0 0 2.8 15.7 110.5 110.5 0 0 0 32.1 18.6 12.36 12.36 0 0 0 15.1-5.4l8.2-14.3a88.86 88.86 0 0 0 31.7 0l8.2 14.3a12.36 12.36 0 0 0 15.1 5.4 111.83 111.83 0 0 0 32.1-18.6 12.3 12.3 0 0 0 2.8-15.7l-8.2-14.3a86.33 86.33 0 0 0 15.9-27.4h16.5a12.43 12.43 0 0 0 12.2-10.4 112.66 112.66 0 0 0 .01-37.1zm-136.8 45c-29.6-38.5 14.3-82.5 52.8-52.8 29.59 38.49-14.3 82.39-52.8 52.79z" class="fa-secondary"/><path d="M420 303.79L386.31 287a173.78 173.78 0 0 0 0-63.5l33.7-16.8c10.1-5.9 14-18.2 10-29.1-8.9-24.2-25.9-46.4-42.1-65.8a23.93 23.93 0 0 0-30.3-5.3l-29.1 16.8a173.66 173.66 0 0 0-54.9-31.7V58a24 24 0 0 0-20-23.6 228.06 228.06 0 0 0-76 .1A23.82 23.82 0 0 0 158 58v33.7a171.78 171.78 0 0 0-54.9 31.7L74 106.59a23.91 23.91 0 0 0-30.3 5.3c-16.2 19.4-33.3 41.6-42.2 65.8a23.84 23.84 0 0 0 10.5 29l33.3 16.9a173.24 173.24 0 0 0 0 63.4L12 303.79a24.13 24.13 0 0 0-10.5 29.1c8.9 24.1 26 46.3 42.2 65.7a23.93 23.93 0 0 0 30.3 5.3l29.1-16.7a173.66 173.66 0 0 0 54.9 31.7v33.6a24 24 0 0 0 20 23.6 224.88 224.88 0 0 0 75.9 0 23.93 23.93 0 0 0 19.7-23.6v-33.6a171.78 171.78 0 0 0 54.9-31.7l29.1 16.8a23.91 23.91 0 0 0 30.3-5.3c16.2-19.4 33.7-41.6 42.6-65.8a24 24 0 0 0-10.5-29.1zm-151.3 4.3c-77 59.2-164.9-28.7-105.7-105.7 77-59.2 164.91 28.7 105.71 105.7z" class="fa-primary"/>
	</symbol>
	<symbol id="comment-alt" viewBox="0 0 512 512">
		<path d="M448 0H64C28.7 0 0 28.7 0 64v288c0 35.3 28.7 64 64 64h96v84c0 9.8 11.2 15.5 19.1 9.7L304 416h144c35.3 0 64-28.7 64-64V64c0-35.3-28.7-64-64-64z" class="fa-secondary"/>
	</symbol>
	<symbol id="comments" viewBox="0 0 576 512">
		<path d="M208 352c-41 0-79.1-9.3-111.3-25-21.8 12.7-52.1 25-88.7 25a7.83 7.83 0 0 1-7.3-4.8 8 8 0 0 1 1.5-8.7c.3-.3 22.4-24.3 35.8-54.5-23.9-26.1-38-57.7-38-92C0 103.6 93.1 32 208 32s208 71.6 208 160-93.1 160-208 160z" class="fa-secondary"/><path d="M576 320c0 34.3-14.1 66-38 92 13.4 30.3 35.5 54.2 35.8 54.5a8 8 0 0 1 1.5 8.7 7.88 7.88 0 0 1-7.3 4.8c-36.6 0-66.9-12.3-88.7-25-32.2 15.8-70.3 25-111.3 25-86.2 0-160.2-40.4-191.7-97.9A299.82 299.82 0 0 0 208 384c132.3 0 240-86.1 240-192a148.61 148.61 0 0 0-1.3-20.1C522.5 195.8 576 253.1 576 320z" class="fa-primary"/>
	</symbol>
	<symbol id="exclamation-triangle" viewBox="0 0 576 512">
		<path d="M569.52 440L329.58 24c-18.44-32-64.69-32-83.16 0L6.48 440c-18.42 31.94 4.64 72 41.57 72h479.89c36.87 0 60.06-40 41.58-72zM288 448a32 32 0 1 1 32-32 32 32 0 0 1-32 32zm38.24-238.41l-12.8 128A16 16 0 0 1 297.52 352h-19a16 16 0 0 1-15.92-14.41l-12.8-128A16 16 0 0 1 265.68 192h44.64a16 16 0 0 1 15.92 17.59z" class="fa-secondary"/><path d="M310.32 192h-44.64a16 16 0 0 0-15.92 17.59l12.8 128A16 16 0 0 0 278.48 352h19a16 16 0 0 0 15.92-14.41l12.8-128A16 16 0 0 0 310.32 192zM288 384a32 32 0 1 0 32 32 32 32 0 0 0-32-32z" class="fa-primary"/>
	</symbol>
	<symbol id="file" viewBox="0 0 384 512">
		<path d="M256 0H24A23.94 23.94 0 0 0 0 23.88V488a23.94 23.94 0 0 0 23.88 24H360a23.94 23.94 0 0 0 24-23.88V128H272a16 16 0 0 1-16-16z" class="fa-secondary"/><path d="M384 121.9v6.1H272a16 16 0 0 1-16-16V0h6.1a24 24 0 0 1 17 7l97.9 98a23.9 23.9 0 0 1 7 16.9z" class="fa-primary"/>
	</symbol>
	<symbol id="file-code" viewBox="0 0 384 512">
		<path d="M384 128H272a16 16 0 0 1-16-16V0H24A23.94 23.94 0 0 0 0 23.88V488a23.94 23.94 0 0 0 23.88 24H360a23.94 23.94 0 0 0 24-23.88V128zM141.79 379.54l-19.58 20.84a5.41 5.41 0 0 1-7.64.24l-64.86-60.69a5.37 5.37 0 0 1-.24-7.6l.25-.25 64.86-60.7a5.42 5.42 0 0 1 7.64.24l19.58 20.85a5.4 5.4 0 0 1-.25 7.62l-.13.12L100.65 336l40.76 35.8a5.4 5.4 0 0 1 .49 7.62zm31.71 71.25l-27.45-8a5.38 5.38 0 0 1-3.67-6.67l61.49-211.24a5.38 5.38 0 0 1 6.68-3.64l27.45 8a5.4 5.4 0 0 1 3.63 6.67l-61.45 211.2a5.4 5.4 0 0 1-6.68 3.68zm161-111.12l-.25.25-64.86 60.69a5.42 5.42 0 0 1-7.64-.23l-19.58-20.84a5.37 5.37 0 0 1 .26-7.6l.13-.12L283.35 336l-40.76-35.8a5.4 5.4 0 0 1-.49-7.62l.11-.12 19.58-20.85a5.42 5.42 0 0 1 7.64-.24l64.86 60.7a5.36 5.36 0 0 1 .25 7.6z" class="fa-secondary"/><path d="M377 105L279.1 7a24 24 0 0 0-17-7H256v112a16 16 0 0 0 16 16h112v-6.1a23.9 23.9 0 0 0-7-16.9zM141.41 371.8L100.65 336l40.76-35.8.13-.12a5.4 5.4 0 0 0 .25-7.62l-19.58-20.85a5.42 5.42 0 0 0-7.64-.24l-64.86 60.7-.25.25a5.37 5.37 0 0 0 .24 7.6l64.86 60.69a5.41 5.41 0 0 0 7.64-.24l19.58-20.84.11-.12a5.4 5.4 0 0 0-.48-7.61zm100.22-135.93a5.4 5.4 0 0 0-3.63-6.67l-27.45-8a5.38 5.38 0 0 0-6.68 3.64l-61.5 211.29a5.38 5.38 0 0 0 3.63 6.67l27.45 8a5.4 5.4 0 0 0 6.68-3.68l61.44-211.22zm92.66 96.2l-64.86-60.7a5.42 5.42 0 0 0-7.64.24l-19.58 20.85-.11.12a5.4 5.4 0 0 0 .49 7.62l40.76 35.8-40.76 35.8-.13.12a5.37 5.37 0 0 0-.26 7.6l19.58 20.84a5.42 5.42 0 0 0 7.64.23l64.86-60.69.25-.25a5.36 5.36 0 0 0-.25-7.6z" class="fa-primary"/>
	</symbol>
	<symbol id="fire-extinguisher" viewBox="0 0 448 512">
		<path d="M256 67.09V72c0-1.18-.1-2.94 0-4.91zM46.29 184.91a24 24 0 0 1-44.57-17.82c14.67-36.67 38-77.84 90.05-90.89C77.63 39.68 104.57 0 144 0a56 56 0 0 1 53.67 72H256v48h-40v26a96.87 96.87 0 0 0-48 0v-26c-61 0-92.94-7-121.71 64.91zM144 72a16 16 0 1 0-16-16 16 16 0 0 0 16 16zm112 53.54V120a51.87 51.87 0 0 0 0 5.54z" class="fa-secondary"/><path d="M434 26.33l-168 28c-8.15 1.36-9.77 7.73-10 12.76v58.45c.38 4.79 2.24 10.83 10 12.13l168 28a12 12 0 0 0 14-11.84V38.17a12 12 0 0 0-14-11.84zM192 143a96 96 0 0 0-96 96v241a32 32 0 0 0 32 32h128a32 32 0 0 0 32-32V239a96 96 0 0 0-96-96z" class="fa-primary"/>
	</symbol>
	<symbol id="history" viewBox="0 0 512 512">
		<path d="M141.68 400.23a184 184 0 1 0-11.75-278.3l50.76 50.76c10.08 10.08 2.94 27.31-11.32 27.31H24a16 16 0 0 1-16-16V38.63c0-14.26 17.23-21.4 27.31-11.32l49.38 49.38A247.14 247.14 0 0 1 256 8c136.81 0 247.75 110.78 248 247.53S392.82 503.9 256.18 504a247 247 0 0 1-155.82-54.91 24 24 0 0 1-1.84-35.61l11.27-11.27a24 24 0 0 1 31.89-1.98z" class="fa-secondary"/><path d="M288 152v104.35L328.7 288a24 24 0 0 1 4.21 33.68l-9.82 12.62a24 24 0 0 1-33.68 4.21L224 287.65V152a24 24 0 0 1 24-24h16a24 24 0 0 1 24 24z" class="fa-primary"/>
	</symbol>
	<symbol id="image" viewBox="0 0 512 512">
		<path d="M448 384H64v-48l71.51-71.52a12 12 0 0 1 17 0L208 320l135.51-135.52a12 12 0 0 1 17 0L448 272z" class="fa-secondary"/><path d="M464 64H48a48 48 0 0 0-48 48v288a48 48 0 0 0 48 48h416a48 48 0 0 0 48-48V112a48 48 0 0 0-48-48zm-352 56a56 56 0 1 1-56 56 56 56 0 0 1 56-56zm336 264H64v-48l71.51-71.52a12 12 0 0 1 17 0L208 320l135.51-135.52a12 12 0 0 1 17 0L448 272z" class="fa-primary"/>
	</symbol>
	<symbol id="language" viewBox="0 0 640 512">
		<path d="M168.1 236.2c-3.5-12.1-7.8-33.2-7.8-33.2h-.5s-4.3 21.1-7.8 33.2l-11.1 37.5H179zM0 120v272.12A23.94 23.94 0 0 0 24 416h296V96H23.88A23.94 23.94 0 0 0 0 120zm74.62 216.19l57.65-168.14A12 12 0 0 1 143.7 160h32.58a12.23 12.23 0 0 1 11.43 8.05l57.64 168.14a11.7 11.7 0 0 1 .65 3.93A12 12 0 0 1 233.92 352H211a12 12 0 0 1-11.53-8.55L190 311.73h-60.34l-9.12 31.62A12.11 12.11 0 0 1 109 352H86a12.07 12.07 0 0 1-11.43-15.81zM564 188h-64v-16a12 12 0 0 0-12-12h-16a12 12 0 0 0-12 12v16h-64a12 12 0 0 0-12 12v16a12 12 0 0 0 12 12h114.3c-6.2 14.3-16.5 29-30 43.19a191 191 0 0 1-17.4-20.89 12.09 12.09 0 0 0-16-3.4l-7.3 4.3-6.5 3.89-.64.41a12 12 0 0 0-3.06 16.69 231.81 231.81 0 0 0 21 25.69 284.34 284.34 0 0 1-26.1 18 12 12 0 0 0-4.2 16.2l7.9 13.89.2.34a12 12 0 0 0 16.5 4 352.44 352.44 0 0 0 35.4-24.89 348.11 348.11 0 0 0 35.4 24.89 3.79 3.79 0 0 0 .34.2 12 12 0 0 0 16.36-4.5l7.9-14.01a12 12 0 0 0-4.1-16.2 310.64 310.64 0 0 1-26.1-18c21-22.49 35.8-46.28 42.7-69.88H564a12 12 0 0 0 12-12V200a12 12 0 0 0-12-12z" class="fa-secondary"/><path d="M616.12 96H320v320h296a23.94 23.94 0 0 0 24-23.88V120a23.94 23.94 0 0 0-23.88-24zM576 216a12 12 0 0 1-12 12h-11.4c-6.9 23.6-21.7 47.39-42.7 69.88a310.64 310.64 0 0 0 26.1 18 12 12 0 0 1 4.1 16.2l-7.9 13.89a12 12 0 0 1-16.36 4.5 3.79 3.79 0 0 1-.34-.2 348.11 348.11 0 0 1-35.4-24.89 352.44 352.44 0 0 1-35.4 24.89 12 12 0 0 1-16.5-4l-.2-.34-7.9-13.93a12 12 0 0 1 4.2-16.2 284.34 284.34 0 0 0 26.1-18 231.81 231.81 0 0 1-21-25.69 12 12 0 0 1 3.06-16.69l.64-.41 6.5-3.89 7.3-4.3a12.09 12.09 0 0 1 16 3.4 191 191 0 0 0 17.4 20.89c13.5-14.2 23.8-28.89 30-43.19H396a12 12 0 0 1-12-12V200a12 12 0 0 1 12-12h64v-16a12 12 0 0 1 12-12h16a12 12 0 0 1 12 12v16h64a12 12 0 0 1 12 12zm-388.29-47.95a12.23 12.23 0 0 0-11.43-8.05H143.7a12 12 0 0 0-11.43 8.05L74.62 336.19A12.07 12.07 0 0 0 86.05 352h23a12.11 12.11 0 0 0 11.53-8.65l9.12-31.62H190l9.42 31.72A12 12 0 0 0 211 352h23a12 12 0 0 0 12-11.88 11.7 11.7 0 0 0-.65-3.93zM140.9 273.7l11.1-37.5c3.5-12.1 7.8-33.2 7.8-33.2h.5s4.3 21.1 7.8 33.2l10.9 37.5z" class="fa-primary"/>
	</symbol>
	<symbol id="life-ring" viewBox="0 0 512 512">
		<path d="M292.08 167l-.41-.17zm-66.62-2a96.5 96.5 0 0 1 61.08 0l112-112a248 248 0 0 0-285 0zm68.67 2.92l.52.22zm2.49 1.12l.46.21zM186.25 322l-.19-.21zm-5.51-6.36l.21.26zm1.65 2c.12.14.23.28.35.41-.12-.15-.23-.29-.35-.43zm1.74 2l.36.4zm135.51-135.51l.4.36zM177.51 311.29l-.1-.15zM304.18 173l.34.19zm11.42 7.78l.26.21zm6.36 5.51l-.21-.19zm-3.96-3.55l-.42-.35zm-11.6-8.43l.47.29zm4.68 3.09l.17.12zm-2-1.35l-.43-.29zm-9.71-5.68l-.1-.05zm-123.61 32.91c.1-.14.19-.28.28-.42-.04.14-.18.28-.28.42zm-1.45 2.28l.29-.46zm-1.31 2.25l.19-.32zm-2.6 4.77zm10.38-16.18l.21-.26zm2-2.43c-.12.13-.23.27-.35.41.08-.14.19-.28.31-.38zm-5.33 6.89l.1-.15zm-8.2 14.07c-.07.14-.13.29-.2.43.03-.14.09-.29.16-.43zm5.39 92l-.29-.46zm-4.27-7.53v.05zm2.82 5.14l-.19-.32zm2.61 4.21c.1.14.19.28.28.42-.08-.17-.22-.31-.32-.45zm-6.8-12.11c.07.14.13.29.2.43-.06-.14-.12-.29-.2-.43zm-2-76.7c0 .13-.1.25-.16.38.07-.13.16-.25.16-.38zm1.09-2.58c-.07.17-.15.34-.22.5.13-.16.13-.33.23-.5zm-.22 76.78c.07.16.15.33.22.5-.09-.17-.09-.34-.21-.5zm-1-2.46c.06.13.11.25.16.38-.03-.13-.12-.25-.18-.38zm172-84.19l.19.32zM327.51 320l.36-.4zm-1.57 1.71l-.19.21zM325.75 190l.19.21zm3.51 128c.12-.13.23-.27.35-.41-.12.17-.23.31-.35.41zm2-121.63l-.21-.26zm0 119.2l-.21.26zm-1.65-121.22c-.12-.14-.23-.28-.35-.41.12.16.23.3.35.44zm-1.74-2l-.36-.4zm6.62 8.35l.1.15zm.1 110.43l-.1.15zM398.49 53q2 1.41 4 2.85-2-1.43-4-2.85zM343.9 294.64c.07-.17.15-.34.22-.5-.07.16-.12.33-.22.5zm1.09-2.58c.05-.13.1-.25.16-.38-.06.13-.15.25-.15.38zm-3.35 7.36v-.05zm-5.4 9.3l-.28.42zm1.45-2.28l-.29.46zm1.35-2.25l-.19.32zm3.75-7.12c.07-.14.13-.29.2-.43-.07.14-.13.29-.2.43zM449 100.21q-1.41-1.75-2.85-3.46 1.39 1.71 2.85 3.46zM445.49 96c-1-1.18-2-2.35-3-3.51 1 1.19 2.01 2.36 3 3.51zm6.87 8.5q-1.36-1.74-2.76-3.5 1.4 1.76 2.76 3.53zm3.36 4.44c-.91-1.23-1.83-2.44-2.75-3.65.92 1.24 1.84 2.45 2.75 3.71zm-119.48 94.34l-.28-.42zm66.76-147q1.85 1.36 3.66 2.76-1.78-1.39-3.66-2.76zm12.23 9.62q-1.72-1.44-3.47-2.85 1.77 1.41 3.5 2.85zM411 62.4q-1.74-1.4-3.51-2.77Q409.24 61 411 62.4zm8.5 7.13q-1.74-1.53-3.51-3 1.75 1.47 3.49 3zm-75.38 148.33c-.07-.16-.15-.33-.22-.5.1.17.15.34.22.5zM184.49 192l-.36.4zM343 215.36c-.07-.14-.13-.29-.2-.43.06.14.12.29.2.43zm113.16-105.8c1 1.31 1.9 2.62 2.84 3.94-.95-1.32-1.89-2.63-2.85-3.94zM337.4 205.1l.29.46zm82.53-135.18a248.82 248.82 0 0 1 22.14 22.15 250.17 250.17 0 0 0-22.14-22.15zm-74.78 150.4a6.15 6.15 0 0 1-.16-.38c.01.13.1.25.16.38zM459 398.49a248 248 0 0 0 0-285L347 225.46a96.5 96.5 0 0 1 0 61.08zM341.67 212.63zM220.33 345.15l-.41-.17zm-2.46-1l-.52-.22zm-5.3-2.49l.1.05zM322 325.75l-.21.19zM309.14 336l-.43.29zm2-1.35l.17-.12zm4.48-3.34l.26-.21zm4-3.39l.4-.36zm-1.6 1.39l-.42.35zM215.38 343l-.46-.21zm-19-11.74l-.26-.21zm-4-3.39l-.4-.36zm-6.3-137.62l.19-.21zm4 135.5l.21.19zm15.52 11.94l-.47-.29zm2.26 1.35l-.34-.19zm78.72 8a96.5 96.5 0 0 1-61.08 0L113.51 459a248 248 0 0 0 285 0zM202.86 336l.43.29zm-2-1.35l-.17-.12zM416 445.49q1.77-1.49 3.51-3-1.77 1.51-3.51 3zm43-47c-.93 1.33-1.88 2.64-2.84 3.95.95-1.31 1.9-2.62 2.84-3.95zM411.79 449q1.74-1.41 3.47-2.85-1.72 1.39-3.47 2.85zm-4.32 3.42q1.77-1.38 3.51-2.77-1.74 1.35-3.51 2.72zM455.72 403q-1.37 1.85-2.76 3.66 1.4-1.78 2.76-3.66zm-10.23 13c-1 1.18-2 2.35-3 3.51 1-1.19 2.01-2.36 3-3.51zm3.46-4.18q-1.41 1.74-2.85 3.47 1.44-1.75 2.9-3.5zm.65-.81q1.39-1.74 2.77-3.51-1.37 1.74-2.77 3.5zm-150.17-69.38a.31.31 0 0 1-.1.05.31.31 0 0 0 .1-.05zm-5.3 2.49l.52-.22zm12.31-6.43l.47-.29zm-9.82 5.31l.46-.21zm7.56-4l.34-.19zm137.9 80.89a248.94 248.94 0 0 1-22.15 22.15 248.94 248.94 0 0 0 22.15-22.11zm-39.63 36.21q-2 1.44-4 2.85 2.04-1.37 4-2.81zM292.08 345l-.41.17zM403 455.72q1.85-1.37 3.66-2.76-1.78 1.4-3.66 2.76zM194 329.26l.42.35zM69.93 92.07a248.82 248.82 0 0 1 22.14-22.15 250.17 250.17 0 0 0-22.14 22.15zm30.28-29q-1.74 1.41-3.47 2.85 1.73-1.46 3.47-2.87zm90 123l-.21.19zm4.13-3.67l-.42.35zM109.55 55.86q2-1.44 4-2.85-2.03 1.41-4 2.85zM196.14 181l.26-.21zM104.53 59.63Q102.76 61 101 62.4q1.76-1.4 3.53-2.77zm.78-.59q1.81-1.4 3.66-2.76-1.84 1.37-3.66 2.72zm87.05 125.09l-.4.36zm22.56-14.92l.46-.21zm-2.25 1.11l-.1.05zm4.68-2.22l.52-.22zm2.57-1.08l.41-.17zm-17.06 9l.43-.29zm5-3.09l-.34.19zm-7.11 4.56l.17-.12zm4.38-2.92l.47-.29zM96.74 446.1q1.73 1.44 3.47 2.85-1.74-1.41-3.47-2.85zm-33.69-34.31q1.41 1.74 2.85 3.47-1.44-1.72-2.85-3.47zm3.46 4.21c1 1.18 2 2.35 3 3.51-1-1.19-2.01-2.36-3-3.51zm-10.23-13q1.36 1.85 2.76 3.66-1.39-1.78-2.76-3.66zm3.35 4.44q1.37 1.8 2.77 3.56-1.4-1.76-2.77-3.53zm32.89 35q1.74 1.53 3.51 3-1.77-1.44-3.51-2.97zM105.31 453q1.81 1.4 3.66 2.76-1.84-1.4-3.66-2.76zm8.2 6q-2-1.41-4-2.85 2.01 1.43 4 2.85zM101 449.6q1.74 1.39 3.51 2.77-1.75-1.37-3.51-2.77zm-45.15-47.16c-1-1.31-1.9-2.62-2.84-3.95.99 1.33 1.88 2.64 2.84 3.95zM65.9 96.75q-1.44 1.71-2.85 3.46 1.41-1.75 2.85-3.46zM56.29 109c.9-1.23 1.82-2.45 2.74-3.65-.92 1.17-1.84 2.39-2.74 3.65zm6.11-8q-1.4 1.74-2.76 3.51Q61 102.76 62.4 101zm7.12-8.5c-1 1.16-2 2.33-3 3.51.98-1.16 1.99-2.33 3-3.49zm23-23q1.74-1.53 3.51-3-1.77 1.5-3.51 3.03zm-.45 372.55a248.94 248.94 0 0 1-22.15-22.15 248.94 248.94 0 0 0 22.15 22.18zM165 286.54a96.5 96.5 0 0 1 0-61.08L53 113.51a248 248 0 0 0 0 285zm-109.11-177q-1.44 2-2.84 3.93 1.36-1.95 2.8-3.9z" class="fa-secondary"/><path d="M347 225.46l112-111.95A249.4 249.4 0 0 0 398.49 53L286.54 165A96.26 96.26 0 0 1 347 225.46zm-182 61.08l-112 112a249.4 249.4 0 0 0 60.5 60.5L225.46 347A96.26 96.26 0 0 1 165 286.54zm-112-173l112 112a96.26 96.26 0 0 1 60.5-60.5L113.51 53A249.4 249.4 0 0 0 53 113.51zM286.54 347l112 112a249.4 249.4 0 0 0 60.5-60.5L347 286.54A96.26 96.26 0 0 1 286.54 347z" class="fa-primary"/>
	</symbol>
	<symbol id="map" viewBox="0 0 576 512">
		<path d="M192 32l192 64v384l-192-64z" class="fa-secondary"/><path d="M0 117.66V464a16 16 0 0 0 21.94 14.86L160 416V32L20.12 88A32 32 0 0 0 0 117.66zm554.06-84.5L416 96v384l139.88-55.95A32 32 0 0 0 576 394.34V48a16 16 0 0 0-21.94-14.84z" class="fa-primary"/>
	</symbol>
	<symbol id="map-signs" viewBox="0 0 512 512">
		<path d="M224 496a16 16 0 0 0 16 16h32a15.88 15.88 0 0 0 5.71-1.07l.52-.19.1-.05a16.08 16.08 0 0 0 5-3.38A15.91 15.91 0 0 0 288 496V384h-64zM272 0h-32a16 16 0 0 0-16 16v16h64V16a16 16 0 0 0-16-16zm-48 224h64v-32h-64z" class="fa-secondary"/><path d="M456 224H70.63A32 32 0 0 0 48 233.37L4.69 276.69a16 16 0 0 0 0 22.63L48 342.63A32 32 0 0 0 70.63 352H456a24 24 0 0 0 24-24v-80a24 24 0 0 0-24-24zm51.31-139.31L464 41.37A32 32 0 0 0 441.37 32H56a24 24 0 0 0-24 24v80a24 24 0 0 0 24 24h385.37a32 32 0 0 0 22.63-9.37l43.31-43.31a16 16 0 0 0 0-22.63z" class="fa-primary"/>
	</symbol>
	<symbol id="medkit" viewBox="0 0 512 512">
		<path d="M384 128v352h64V128zM64 480h64V128H64z" class="fa-secondary"/><path d="M336 32H176a48 48 0 0 0-48 48v400h256V80a48 48 0 0 0-48-48zM192 96h128v32H192zm160 224a16 16 0 0 1-16 16h-48v48a16 16 0 0 1-16 16h-32a16 16 0 0 1-16-16v-48h-48a16 16 0 0 1-16-16v-32a16 16 0 0 1 16-16h48v-48a16 16 0 0 1 16-16h32a16 16 0 0 1 16 16v48h48a16 16 0 0 1 16 16zM0 176v256a48 48 0 0 0 48 48h16V128H48a48 48 0 0 0-48 48zm464-48h-16v352h16a48 48 0 0 0 48-48V176a48 48 0 0 0-48-48z" class="fa-primary"/>
	</symbol>
	<symbol id="newspaper" viewBox="0 0 576 512">
		<path d="M544 64H96a32 32 0 0 0-32 32v322.21c0 .36-.05.73-.09 1.09 0 .21 0 .42-.08.63s-.08.66-.13 1-.08.46-.12.68-.1.61-.16.91-.11.46-.16.69-.13.59-.21.87-.13.46-.19.69l-.24.84-.24.68c-.09.28-.18.55-.28.82s-.17.45-.26.67-.21.53-.32.79-.2.45-.3.67-.23.51-.35.76l-.33.65c-.13.25-.25.49-.39.74l-.36.63-.42.72-.39.61c-.15.23-.3.46-.46.69l-.42.6-.48.66c-.15.2-.3.39-.46.58s-.33.43-.51.64l-.48.55-.54.61-.51.53c-.18.2-.37.39-.57.59l-.53.5-.6.56-.55.48-.62.52-.58.46-.65.49-.6.43-.68.46c-.2.14-.41.27-.62.4l-.69.43-.65.37c-.23.13-.47.27-.71.39l-.67.34c-.24.13-.48.25-.73.36l-.69.31-.74.32-.71.28-.77.29-.72.24-.78.25-.75.21-.79.21-.76.17-.81.17-.77.14-.82.12-.79.1-.83.09-.81.06h-1.65H528a48 48 0 0 0 48-48V96a32 32 0 0 0-32-32zM304 372a12 12 0 0 1-12 12H140a12 12 0 0 1-12-12v-8a12 12 0 0 1 12-12h152a12 12 0 0 1 12 12zm0-96a12 12 0 0 1-12 12H140a12 12 0 0 1-12-12v-8a12 12 0 0 1 12-12h152a12 12 0 0 1 12 12zm208 96a12 12 0 0 1-12 12H348a12 12 0 0 1-12-12v-8a12 12 0 0 1 12-12h152a12 12 0 0 1 12 12zm0-96a12 12 0 0 1-12 12H348a12 12 0 0 1-12-12v-8a12 12 0 0 1 12-12h152a12 12 0 0 1 12 12zm0-96a12 12 0 0 1-12 12H140a12 12 0 0 1-12-12v-40a12 12 0 0 1 12-12h360a12 12 0 0 1 12 12z" class="fa-secondary"/><path d="M292 352H140a12 12 0 0 0-12 12v8a12 12 0 0 0 12 12h152a12 12 0 0 0 12-12v-8a12 12 0 0 0-12-12zm0-96H140a12 12 0 0 0-12 12v8a12 12 0 0 0 12 12h152a12 12 0 0 0 12-12v-8a12 12 0 0 0-12-12zm208 96H348a12 12 0 0 0-12 12v8a12 12 0 0 0 12 12h152a12 12 0 0 0 12-12v-8a12 12 0 0 0-12-12zm0-96H348a12 12 0 0 0-12 12v8a12 12 0 0 0 12 12h152a12 12 0 0 0 12-12v-8a12 12 0 0 0-12-12zM0 128v287.33c0 17.44 13.67 32.18 31.1 32.67A32 32 0 0 0 64 416V96H32a32 32 0 0 0-32 32z" class="fa-primary"/>
	</symbol>
	<symbol id="object-group" viewBox="0 0 512 512">
		<path d="M500 96a12 12 0 0 0 12-12V44a12 12 0 0 0-12-12h-40a12 12 0 0 0-12 12v20H64V44a12 12 0 0 0-12-12H12A12 12 0 0 0 0 44v40a12 12 0 0 0 12 12h20v320H12a12 12 0 0 0-12 12v40a12 12 0 0 0 12 12h40a12 12 0 0 0 12-12v-20h384v20a12 12 0 0 0 12 12h40a12 12 0 0 0 12-12v-40a12 12 0 0 0-12-12h-20V96zm-84 276a12 12 0 0 1-12 12H236a12 12 0 0 1-12-12v-84H108a12 12 0 0 1-12-12V140a12 12 0 0 1 12-12h168a12 12 0 0 1 12 12v84h116a12 12 0 0 1 12 12z" class="fa-secondary"/><path d="M288 140v136a12 12 0 0 1-12 12H108a12 12 0 0 1-12-12V140a12 12 0 0 1 12-12h168a12 12 0 0 1 12 12z" class="fa-primary"/>
	</symbol>
	<symbol id="paper-plane" viewBox="0 0 512 512">
		<path d="M245.53 410.5l-75 92.83c-14 17.1-42.5 7.8-42.5-15.8V358l280.26-252.77c5.5-4.9 13.3 2.6 8.6 8.3L191.72 387.87z" class="fa-secondary"/><path d="M511.59 28l-72 432a24.07 24.07 0 0 1-33 18.2l-214.87-90.33 225.17-274.34c4.7-5.7-3.1-13.2-8.6-8.3L128 358 14.69 313.83a24 24 0 0 1-2.2-43.2L476 3.23c17.29-10 39 4.6 35.59 24.77z" class="fa-primary"/>
	</symbol>
	<symbol id="puzzle-piece" viewBox="0 0 576 512">
		<path d="M576 354.44C576 388 556.71 416 521.08 416c-39.89 0-50.35-36.15-86.31-36.15-60.55 0-25.83 120.1-25.83 120.1-51.55 0-181.23 35.07-181.23-25.73 0-35.83 36.29-46.25 36.29-86 0-35.5-28.12-54.71-61.79-54.71-34.33 0-63.58 18.89-63.58 56.34 0 41.37 40 59 40 81.47C178.63 541 0 500 0 500V166.76s175.88 41 175.88-28.66c0-22.48-31.71-40.39-31.71-81.75C144.17 18.89 175.88 0 210.54 0 243.88 0 272 19.22 272 54.72c0 39.73-36.29 50.16-36.29 86C235.71 224 432 144 432 144s-54.59 176.24 5.38 176.24c22.56 0 40.54-31.59 82.06-31.59 37.56 0 56.56 31.59 56.56 65.79z" class="fa-secondary"/>
	</symbol>
	<symbol id="random" viewBox="0 0 512 512">
		<path d="M505 359l-80-80c-15-15-41-4.47-41 17v40h-32l-52.78-56.55-53.33 57.14 70.55 75.6a12 12 0 0 0 8.77 3.81H384v40c0 21.46 26 32 41 17l80-80a24 24 0 0 0 0-34zM122.79 96H12a12 12 0 0 0-12 12v56a12 12 0 0 0 12 12h84l52.78 56.55 53.33-57.14-70.55-75.6a12 12 0 0 0-8.77-3.81z" class="fa-secondary"/><path d="M505 119a24 24 0 0 1 0 34l-80 80c-15 15-41 4.48-41-17v-40h-32L131.56 412.19a12 12 0 0 1-8.77 3.81H12a12 12 0 0 1-12-12v-56a12 12 0 0 1 12-12h84L316.44 99.81a12 12 0 0 1 8.78-3.81H384V56c0-21.44 25.94-32 41-17z" class="fa-primary"/>
	</symbol>
	<symbol id="shield" viewBox="0 0 512 512">
		<path d="M256 224v288a48.12 48.12 0 0 0 18.41-3.68c72.34-30.14 180.16-123 212.09-284.29zM237.59 3.67l-192 80A47.92 47.92 0 0 0 16 128a485.36 485.36 0 0 0 9.63 96H256V0a57.58 57.58 0 0 0-18.41 3.67z" class="fa-secondary"/><path d="M237.5 508.32A48 48 0 0 0 256 512V224H25.63C55.11 370.52 148.77 471.34 237.5 508.32zm229-424.64l-192-80A57.34 57.34 0 0 0 256.06 0H256v224h230.5a491.56 491.56 0 0 0 9.5-96 48 48 0 0 0-29.5-44.32z" class="fa-primary"/>
	</symbol>
	<symbol id="sliders-h" viewBox="0 0 512 512">
		<path d="M496 64H288v64h208a16 16 0 0 0 16-16V80a16 16 0 0 0-16-16zM16 128h176V64H16A16 16 0 0 0 0 80v32a16 16 0 0 0 16 16zm0 160h304v-64H16a16 16 0 0 0-16 16v32a16 16 0 0 0 16 16zm480-64h-80v64h80a16 16 0 0 0 16-16v-32a16 16 0 0 0-16-16zm0 160H160v64h336a16 16 0 0 0 16-16v-32a16 16 0 0 0-16-16zM0 400v32a16 16 0 0 0 16 16h48v-64H16a16 16 0 0 0-16 16z" class="fa-secondary"/><path d="M272 32h-32a16 16 0 0 0-16 16v96a16 16 0 0 0 16 16h32a16 16 0 0 0 16-16V48a16 16 0 0 0-16-16zm128 160h-32a16 16 0 0 0-16 16v96a16 16 0 0 0 16 16h32a16 16 0 0 0 16-16v-96a16 16 0 0 0-16-16zM144 352h-32a16 16 0 0 0-16 16v96a16 16 0 0 0 16 16h32a16 16 0 0 0 16-16v-96a16 16 0 0 0-16-16z" class="fa-primary"/>
	</symbol>
	<symbol id="tags" viewBox="0 0 640 512">
		<path d="M497.94 225.94L286.06 14.06A48 48 0 0 0 252.12 0H48A48 48 0 0 0 0 48v204.12a48 48 0 0 0 14.06 33.94l211.88 211.88a48 48 0 0 0 67.88 0l204.12-204.12a48 48 0 0 0 0-67.88zM112 160a48 48 0 1 1 48-48 48 48 0 0 1-48 48z" class="fa-secondary"/><path d="M625.94 293.82L421.82 497.94a48 48 0 0 1-67.88 0l-.36-.36 174.06-174.06a90 90 0 0 0 0-127.28L331.4 0h48.72a48 48 0 0 1 33.94 14.06l211.88 211.88a48 48 0 0 1 0 67.88z" class="fa-primary"/>
	</symbol>
	<symbol id="thermometer-half" viewBox="0 0 320 512">
		<path d="M272 278.5V112a112 112 0 0 0-224 0v166.5C28.3 303.2 16 334 16 368a144 144 0 0 0 288 0c0-34-12.3-64.9-32-89.5zM160 448a79.87 79.87 0 0 1-48-143.8V112a48 48 0 0 1 96 0v192.2A79.87 79.87 0 0 1 160 448z" class="fa-secondary"/><path d="M208 368a48 48 0 1 1-64-45.1V208a16 16 0 0 1 32 0v114.9a47.87 47.87 0 0 1 32 45.1z" class="fa-primary"/>
	</symbol>
	<symbol id="thumbs-up" viewBox="0 0 512 512">
		<path d="M163.56 229.81c39.61-39.15 56.65-80.59 89.12-113.11 14.8-14.84 20.18-37.24 25.39-58.91C282.52 39.29 291.82 0 312 0c24 0 72 8 72 81.45 0 42.42-26 66.21-33.28 94.55h101.73c33.39 0 59.39 27.75 59.55 58.1.08 17.94-7.55 37.25-19.44 49.19l-.11.12c9.84 23.33 8.24 56-9.31 79.46 8.68 25.9-.07 57.71-16.38 74.76 4.3 17.6 2.24 32.58-6.15 44.63C440.2 511.59 389.62 512 346.84 512H344c-48.28 0-87.8-17.6-119.56-31.73-16-7.09-36.82-15.88-52.65-16.17a12 12 0 0 1-11.78-12V238.33a12 12 0 0 1 3.55-8.52z" class="fa-secondary"/><path d="M104 224H24a24 24 0 0 0-24 24v240a24 24 0 0 0 24 24h80a24 24 0 0 0 24-24V248a24 24 0 0 0-24-24zM64 472a24 24 0 1 1 24-24 24 24 0 0 1-24 24z" class="fa-primary"/>
	</symbol>
	<symbol id="user" viewBox="0 0 448 512">
		<path d="M352 128A128 128 0 1 1 224 0a128 128 0 0 1 128 128z" class="fa-secondary"/><path d="M313.6 288h-16.7a174.1 174.1 0 0 1-145.8 0h-16.7A134.43 134.43 0 0 0 0 422.4V464a48 48 0 0 0 48 48h352a48 48 0 0 0 48-48v-41.6A134.43 134.43 0 0 0 313.6 288z" class="fa-primary"/>
	</symbol>
	<symbol id="user-circle" viewBox="0 0 496 512">
		<path d="M248,8C111,8,0,119,0,256S111,504,248,504,496,393,496,256,385,8,248,8Zm0,96a88,88,0,1,1-88,88A88,88,0,0,1,248,104Zm0,344a191.61,191.61,0,0,1-146.5-68.2C120.3,344.4,157.1,320,200,320a24.76,24.76,0,0,1,7.1,1.1,124.67,124.67,0,0,0,81.8,0A24.76,24.76,0,0,1,296,320c42.9,0,79.7,24.4,98.5,59.8A191.61,191.61,0,0,1,248,448Z" class="fa-secondary"/><path d="M248,280a88,88,0,1,0-88-88A88,88,0,0,0,248,280Zm48,40a24.76,24.76,0,0,0-7.1,1.1,124.67,124.67,0,0,1-81.8,0A24.76,24.76,0,0,0,200,320c-42.9,0-79.7,24.4-98.5,59.8,68.07,80.91,188.84,91.32,269.75,23.25A192,192,0,0,0,394.5,379.8C375.7,344.4,338.9,320,296,320Z" class="fa-primary"/>
	</symbol>
	<symbol id="users" viewBox="0 0 640 512">
		<path d="M96 224a64 64 0 1 0-64-64 64.06 64.06 0 0 0 64 64zm480 32h-64a63.81 63.81 0 0 0-45.1 18.6A146.27 146.27 0 0 1 542 384h66a32 32 0 0 0 32-32v-32a64.06 64.06 0 0 0-64-64zm-512 0a64.06 64.06 0 0 0-64 64v32a32 32 0 0 0 32 32h65.9a146.64 146.64 0 0 1 75.2-109.4A63.81 63.81 0 0 0 128 256zm480-32a64 64 0 1 0-64-64 64.06 64.06 0 0 0 64 64z" class="fa-secondary"/><path d="M396.8 288h-8.3a157.53 157.53 0 0 1-68.5 16c-24.6 0-47.6-6-68.5-16h-8.3A115.23 115.23 0 0 0 128 403.2V432a48 48 0 0 0 48 48h288a48 48 0 0 0 48-48v-28.8A115.23 115.23 0 0 0 396.8 288zM320 256a112 112 0 1 0-112-112 111.94 111.94 0 0 0 112 112z" class="fa-primary"/>
	</symbol>
	<symbol id="wrench" viewBox="0 0 512 512">
		<path d="M322 280.47l-.26.26a144.62 144.62 0 0 1-90.3-90.64L18.09 403.41a64 64 0 0 0 90.5 90.5L322 280.49zM63.35 472.65a24 24 0 1 1 24-24 24 24 0 0 1-24 24z" class="fa-secondary"/><path d="M469.69 246.2c-40 40-97.48 51-147.72 34.27l-.26.26a144.64 144.64 0 0 1-90.41-90.94l.13-.13c-16.54-50.17-5.6-107.71 34.13-147.4a144.38 144.38 0 0 1 136.91-38 12 12 0 0 1 5.67 20.19l-74.53 74.48 11.33 68L413 178.28l74.53-74.52a12 12 0 0 1 20.17 5.52 144 144 0 0 1-38.01 136.92z" class="fa-primary"/>
	</symbol>
</svg>